<svg width="1430" height="422" viewBox="0 0 1430 422" fill="none" xmlns="http://www.w3.org/2000/svg">
<g clip-path="url(#clip0_931_2078)">
<path d="M487.273 254C482.331 258.74 476.406 262.43 469.5 265.07C462.661 267.711 455.214 269.031 447.156 269.031C436.391 269.031 426.776 266.763 418.312 262.227C409.917 257.622 403.281 251.359 398.406 243.438C393.531 235.448 391.094 226.375 391.094 216.219C391.094 206.062 393.531 197.023 398.406 189.102C403.281 181.112 409.917 174.849 418.312 170.312C426.776 165.708 436.391 163.406 447.156 163.406C455.214 163.406 462.661 164.727 469.5 167.367C476.406 170.008 482.331 173.698 487.273 178.438L466.656 197.836C461.781 191.81 455.281 188.797 447.156 188.797C439.708 188.797 433.547 191.404 428.672 196.617C423.797 201.831 421.359 208.365 421.359 216.219C421.359 224.073 423.797 230.607 428.672 235.82C433.547 241.034 439.708 243.641 447.156 243.641C455.281 243.641 461.781 240.628 466.656 234.602L487.273 254ZM499.562 216.219C499.562 206.062 501.898 197.023 506.57 189.102C511.31 181.112 517.742 174.849 525.867 170.312C534.06 165.708 543.37 163.406 553.797 163.406C564.224 163.406 573.5 165.708 581.625 170.312C589.75 174.849 596.148 181.112 600.82 189.102C605.56 197.023 607.93 206.062 607.93 216.219C607.93 226.375 605.56 235.448 600.82 243.438C596.148 251.359 589.75 257.622 581.625 262.227C573.5 266.763 564.224 269.031 553.797 269.031C543.37 269.031 534.06 266.763 525.867 262.227C517.742 257.622 511.31 251.359 506.57 243.438C501.898 235.448 499.562 226.375 499.562 216.219ZM528 216.219C528 224.073 530.438 230.607 535.312 235.82C540.188 241.034 546.349 243.641 553.797 243.641C561.245 243.641 567.406 241.034 572.281 235.82C577.156 230.607 579.594 224.073 579.594 216.219C579.594 208.365 577.156 201.831 572.281 196.617C567.406 191.404 561.245 188.797 553.797 188.797C546.349 188.797 540.188 191.404 535.312 196.617C530.438 201.831 528 208.365 528 216.219ZM620.219 216.219C620.219 206.062 622.352 197.023 626.617 189.102C630.883 181.112 636.74 174.849 644.188 170.312C651.703 165.708 660.201 163.406 669.68 163.406C676.044 163.406 681.969 164.49 687.453 166.656C692.938 168.755 697.812 171.701 702.078 175.492V114.656H731.328V267H703.703L702.992 256.031C698.727 260.161 693.75 263.378 688.062 265.68C682.443 267.914 676.315 269.031 669.68 269.031C660.201 269.031 651.703 266.763 644.188 262.227C636.74 257.622 630.883 251.359 626.617 243.438C622.352 235.448 620.219 226.375 620.219 216.219ZM650.484 216.219C650.484 224.073 652.922 230.607 657.797 235.82C662.672 241.034 668.833 243.641 676.281 243.641C683.729 243.641 689.891 241.034 694.766 235.82C699.641 230.607 702.078 224.073 702.078 216.219C702.078 208.365 699.641 201.831 694.766 196.617C689.891 191.404 683.729 188.797 676.281 188.797C668.833 188.797 662.672 191.404 657.797 196.617C652.922 201.831 650.484 208.365 650.484 216.219ZM778.148 224.953C779.977 230.573 783.328 235.143 788.203 238.664C793.146 242.185 798.901 243.945 805.469 243.945C812.51 243.945 818.333 242.828 822.938 240.594C827.609 238.292 831.841 235.346 835.633 231.758L853.305 252.883C845.451 259.044 837.664 263.276 829.945 265.578C822.294 267.88 814.948 269.031 807.906 269.031C796.667 269.031 786.747 266.763 778.148 262.227C769.549 257.622 762.812 251.326 757.938 243.336C753.062 235.279 750.625 226.138 750.625 215.914C750.625 205.826 752.961 196.854 757.633 189C762.305 181.078 768.669 174.849 776.727 170.312C784.852 165.708 794.06 163.406 804.352 163.406C814.576 163.406 823.648 165.674 831.57 170.211C839.56 174.747 845.857 180.977 850.461 188.898C855.065 196.82 857.367 205.893 857.367 216.117V224.953H778.148ZM827.305 208.703C825.883 202.745 822.971 197.938 818.57 194.281C814.169 190.625 808.888 188.797 802.727 188.797C796.497 188.797 791.081 190.659 786.477 194.383C781.94 198.107 778.961 202.88 777.539 208.703H827.305ZM965.836 254C960.893 258.74 954.969 262.43 948.062 265.07C941.224 267.711 933.776 269.031 925.719 269.031C914.953 269.031 905.339 266.763 896.875 262.227C888.479 257.622 881.844 251.359 876.969 243.438C872.094 235.448 869.656 226.375 869.656 216.219C869.656 206.062 872.094 197.023 876.969 189.102C881.844 181.112 888.479 174.849 896.875 170.312C905.339 165.708 914.953 163.406 925.719 163.406C933.776 163.406 941.224 164.727 948.062 167.367C954.969 170.008 960.893 173.698 965.836 178.438L945.219 197.836C940.344 191.81 933.844 188.797 925.719 188.797C918.271 188.797 912.109 191.404 907.234 196.617C902.359 201.831 899.922 208.365 899.922 216.219C899.922 224.073 902.359 230.607 907.234 235.82C912.109 241.034 918.271 243.641 925.719 243.641C933.844 243.641 940.344 240.628 945.219 234.602L965.836 254ZM985.234 267V114.656H1014.48V175.289C1022.54 167.367 1032.56 163.406 1044.55 163.406C1070.68 163.406 1083.75 179.859 1083.75 212.766V267H1054.5V212.562C1054.5 204.911 1052.88 199.055 1049.62 194.992C1046.44 190.862 1041.87 188.797 1035.91 188.797C1029.55 188.797 1024.37 191.031 1020.38 195.5C1016.45 199.901 1014.48 205.622 1014.48 212.664V267H985.234ZM1128.54 224.953C1130.37 230.573 1133.72 235.143 1138.59 238.664C1143.54 242.185 1149.29 243.945 1155.86 243.945C1162.9 243.945 1168.72 242.828 1173.33 240.594C1178 238.292 1182.23 235.346 1186.02 231.758L1203.7 252.883C1195.84 259.044 1188.05 263.276 1180.34 265.578C1172.68 267.88 1165.34 269.031 1158.3 269.031C1147.06 269.031 1137.14 266.763 1128.54 262.227C1119.94 257.622 1113.2 251.326 1108.33 243.336C1103.45 235.279 1101.02 226.138 1101.02 215.914C1101.02 205.826 1103.35 196.854 1108.02 189C1112.7 181.078 1119.06 174.849 1127.12 170.312C1135.24 165.708 1144.45 163.406 1154.74 163.406C1164.97 163.406 1174.04 165.674 1181.96 170.211C1189.95 174.747 1196.25 180.977 1200.85 188.898C1205.46 196.82 1207.76 205.893 1207.76 216.117V224.953H1128.54ZM1177.7 208.703C1176.27 202.745 1173.36 197.938 1168.96 194.281C1164.56 190.625 1159.28 188.797 1153.12 188.797C1146.89 188.797 1141.47 190.659 1136.87 194.383C1132.33 198.107 1129.35 202.88 1127.93 208.703H1177.7ZM1256.41 267H1227.16V165.438H1254.78L1255.49 176.203C1262.67 167.672 1272.39 163.406 1284.64 163.406C1300.28 163.406 1311.35 170.076 1317.85 183.414C1321.24 176.982 1325.81 172.039 1331.56 168.586C1337.32 165.133 1344.09 163.406 1351.88 163.406C1364.2 163.406 1373.78 167.74 1380.62 176.406C1387.46 185.005 1390.88 196.99 1390.88 212.359V267H1361.62V212.359C1361.62 204.505 1359.76 198.615 1356.04 194.688C1352.38 190.76 1347.95 188.797 1342.73 188.797C1337.45 188.797 1332.95 190.828 1329.23 194.891C1325.5 198.953 1323.64 205.013 1323.64 213.07V267H1294.39V212.359C1294.39 204.505 1292.53 198.615 1288.8 194.688C1285.15 190.76 1280.71 188.797 1275.5 188.797C1270.22 188.797 1265.72 190.828 1261.99 194.891C1258.27 198.953 1256.41 205.013 1256.41 213.07V267Z" fill="#1A202C"/>
<path fill-rule="evenodd" clip-rule="evenodd" d="M219.512 85.359L299.023 131.265C311.399 138.41 319.023 151.615 319.023 165.906V257.718C319.023 272.009 311.399 285.214 299.023 292.359L219.512 338.265C207.135 345.41 191.888 345.41 179.512 338.265L100 292.359C87.624 285.214 80 272.009 80 257.718V165.906C80 151.615 87.624 138.41 100 131.265L179.512 85.359C191.888 78.2137 207.135 78.2137 219.512 85.359Z" fill="#35B86D"/>
<path fill-rule="evenodd" clip-rule="evenodd" d="M209.532 129.613L263.123 161.426C265.498 162.836 266.28 165.903 264.87 168.278C264.428 169.023 263.8 169.64 263.048 170.069L237.985 184.364C234.893 186.127 231.096 186.114 228.016 184.329L204.522 170.713C201.519 168.974 197.839 168.92 194.794 170.55L194.501 170.713L166.501 186.923C163.507 188.657 161.628 191.811 161.517 195.254L161.511 195.577V228.046C161.511 231.507 163.299 234.713 166.224 236.534L166.501 236.701L194.501 252.911C197.504 254.649 201.184 254.704 204.229 253.074L204.522 252.911L228.016 239.295C231.095 237.51 234.892 237.497 237.984 239.261L263.048 253.555C265.446 254.923 266.282 257.977 264.914 260.375C264.485 261.128 263.868 261.756 263.123 262.198L209.532 294.01C203.334 297.599 195.689 297.599 189.491 294.01L133.491 261.589C127.314 258.014 123.511 251.418 123.511 244.281V179.343C123.511 172.206 127.314 165.61 133.491 162.034L189.491 129.613C195.689 126.025 203.334 126.025 209.532 129.613Z" fill="#1A202C"/>
</g>
<defs>
<clipPath id="clip0_931_2078">
<rect width="1322" height="264" fill="white" transform="translate(80 80)"/>
</clipPath>
</defs>
</svg>
